<svg xmlns="http://www.w3.org/2000/svg" version="1.1" xmlns:xlink="http://www.w3.org/1999/xlink" xmlns:svgjs="http://svgjs.dev/svgjs" width="1000" height="1000" viewBox="0 0 1000 1000"><rect width="1000" height="1000" fill="#ffffff"></rect><g transform="matrix(0.7,0,0,0.7,149.90044910179654,149.90044910179637)"><svg viewBox="0 0 334 334" data-background-color="#ffffff" preserveAspectRatio="xMidYMid meet" height="1000" width="1000" xmlns="http://www.w3.org/2000/svg" xmlns:xlink="http://www.w3.org/1999/xlink"><g id="tight-bounds" transform="matrix(1,0,0,1,0.04749999999998522,0.04750000000001364)"><svg viewBox="0 0 333.90454557049503 333.90454557049503" height="333.90454557049503" width="333.90454557049503"><g><svg></svg></g><g><svg viewBox="0 0 333.90454557049503 333.90454557049503" height="333.90454557049503" width="333.90454557049503"><g><path d="M0 166.952c0-92.205 74.747-166.952 166.952-166.952 92.205 0 166.952 74.747 166.953 166.952 0 92.205-74.747 166.952-166.953 166.953-92.205 0-166.952-74.747-166.952-166.953zM166.952 316.63c82.665 0 149.677-67.013 149.678-149.678 0-82.665-67.013-149.677-149.678-149.677-82.665 0-149.677 67.013-149.677 149.677 0 82.665 67.013 149.677 149.677 149.678z" data-fill-palette-color="tertiary" fill="#4b4747" stroke="transparent"></path><ellipse rx="160.27418187383762" ry="160.27418187383762" cx="166.95227278524752" cy="166.95227278524752" fill="#4b4747" stroke="transparent" stroke-width="0" fill-opacity="1" data-fill-palette-color="tertiary"></ellipse></g><g transform="matrix(1,0,0,1,108.01121394612224,71.17305217166896)"><svg viewBox="0 0 117.88211767825054 191.55844122715712" height="191.55844122715712" width="117.88211767825054"><g><svg viewBox="0 0 117.88211767825054 191.55844122715712" height="191.55844122715712" width="117.88211767825054"><g><svg viewBox="0 0 117.88211767825054 191.55844122715712" height="191.55844122715712" width="117.88211767825054"><g><svg viewBox="0 0 117.88211767825054 191.55844122715712" height="191.55844122715712" width="117.88211767825054"><g id="textblocktransform"><svg viewBox="0 0 117.88211767825054 191.55844122715712" height="191.55844122715712" width="117.88211767825054" id="textblock"><g><svg viewBox="0 0 117.88211767825054 191.55844122715712" height="191.55844122715712" width="117.88211767825054"><g transform="matrix(1,0,0,1,0,0)"><svg width="117.88211767825054" viewBox="3.8299999237060547 -35.54999923706055 21.8799991607666 35.54999923706055" height="191.55844122715712" data-palette-color="#ffffff"><path d="M20.9 0L14.58-14.38 8.33-14.38 8.33 0 3.83 0 3.83-35.55 13.79-35.55Q19.02-35.55 21.7-32.82 24.39-30.1 24.39-24.85L24.39-24.85Q24.39-21.56 22.94-19.1 21.48-16.65 18.82-15.41L18.82-15.41 25.71-0.29 25.71 0 20.9 0ZM8.33-31.69L8.33-18.21 13.75-18.21Q16.55-18.21 18.23-20.02 19.9-21.83 19.9-24.85L19.9-24.85Q19.9-31.69 13.7-31.69L13.7-31.69 8.33-31.69Z" opacity="1" transform="matrix(1,0,0,1,0,0)" fill="#ffffff" class="wordmark-text-0" data-fill-palette-color="quaternary" id="text-0"></path></svg></g></svg></g></svg></g></svg></g><g></g></svg></g></svg></g></svg></g></svg></g><defs></defs></svg><rect width="333.90454557049503" height="333.90454557049503" fill="none" stroke="none" visibility="hidden"></rect></g></svg></g></svg>