<svg xmlns="http://www.w3.org/2000/svg" version="1.1" xmlns:xlink="http://www.w3.org/1999/xlink" xmlns:svgjs="http://svgjs.dev/svgjs" width="1000" height="1125" viewBox="0 0 1000 1125"><g transform="matrix(1,0,0,1,0,0)"><svg viewBox="0 0 320 360" data-background-color="#ffffff" preserveAspectRatio="xMidYMid meet" height="1125" width="1000" xmlns="http://www.w3.org/2000/svg" xmlns:xlink="http://www.w3.org/1999/xlink"><g id="tight-bounds" transform="matrix(1,0,0,1,0,0)"><svg viewBox="0 0 320 360" height="360" width="320"><g><svg></svg></g><g><svg viewBox="0 0 320 360" height="360" width="320"><g><path d="M297.491 100.645c-12.426-21.51-112.674-79.355-137.491-79.355-24.817 0-125.028 57.845-137.491 79.355-11.591 20.02-11.591 138.726 0 158.746 12.463 21.474 112.674 79.319 137.491 79.319 24.817 0 125.064-57.845 137.491-79.355 11.591-20.02 11.591-138.69 0-158.71zM309.481 93.705c-14.461-24.998-119.469-86.295-149.481-86.295-30.012 0-135.02 61.297-149.481 86.295-14.025 24.199-14.025 148.391 0 172.59 14.461 24.998 119.469 86.295 149.481 86.295 30.012 0 135.02-61.297 149.481-86.259 14.025-24.235 14.025-148.427 0-172.626zM300.906 261.353c-12.753 22.055-115.472 81.317-140.906 81.318-25.434 0-128.153-59.298-140.906-81.354-11.881-20.529-11.881-142.178 0-162.707 12.753-22.019 115.472-81.281 140.906-81.281 25.434 0 128.153 59.298 140.906 81.318 11.881 20.529 11.881 142.178 0 162.706z" fill="#eb2323" fill-rule="nonzero" stroke="none" stroke-width="1" stroke-linecap="butt" stroke-linejoin="miter" stroke-miterlimit="10" stroke-dasharray="" stroke-dashoffset="0" font-family="none" font-weight="none" font-size="none" text-anchor="none" style="mix-blend-mode: normal" data-fill-palette-color="tertiary"></path></g><g transform="matrix(1,0,0,1,104.61538461538461,90)"><svg viewBox="0 0 110.76923076923076 180" height="180" width="110.76923076923076"><g><svg viewBox="0 0 110.76923076923076 180" height="180" width="110.76923076923076"><g><svg viewBox="0 0 110.76923076923076 180" height="180" width="110.76923076923076"><g><svg viewBox="0 0 110.76923076923076 180" height="180" width="110.76923076923076"><g id="textblocktransform"><svg viewBox="0 0 110.76923076923076 180" height="180" width="110.76923076923076" id="textblock"><g><svg viewBox="0 0 110.76923076923076 180" height="180" width="110.76923076923076"><g transform="matrix(1,0,0,1,0,0)"><svg width="110.76923076923076" viewBox="3.83 -35.55 21.880000000000003 35.55" height="180" data-palette-color="#ffffff"><path d="M20.9 0L14.58-14.38 8.33-14.38 8.33 0 3.83 0 3.83-35.55 13.79-35.55Q19.02-35.55 21.7-32.82 24.39-30.1 24.39-24.85L24.39-24.85Q24.39-21.56 22.94-19.1 21.48-16.65 18.82-15.41L18.82-15.41 25.71-0.29 25.71 0 20.9 0ZM8.33-31.69L8.33-18.21 13.75-18.21Q16.55-18.21 18.23-20.02 19.9-21.83 19.9-24.85L19.9-24.85Q19.9-31.69 13.7-31.69L13.7-31.69 8.33-31.69Z" opacity="1" transform="matrix(1,0,0,1,0,0)" fill="#ffffff" class="wordmark-text-0" data-fill-palette-color="quaternary" id="text-0"></path></svg></g></svg></g></svg></g></svg></g><g></g></svg></g></svg></g></svg></g></svg></g><defs></defs></svg><rect width="320" height="360" fill="none" stroke="none" visibility="hidden"></rect></g></svg></g></svg>